<mxfile host="app.diagrams.net" agent="Mozilla/5.0 (Windows NT 10.0; Win64; x64) AppleWebKit/537.36 (KHTML, like Gecko) Chrome/133.0.0.0 Safari/537.36" version="26.0.16">
  <diagram id="SARayevZK2G35KFQs8cu" name="페이지-1">
    <mxGraphModel dx="3190" dy="1700" grid="0" gridSize="10" guides="1" tooltips="1" connect="1" arrows="1" fold="1" page="0" pageScale="1" pageWidth="827" pageHeight="1169" math="0" shadow="0">
      <root>
        <mxCell id="0" />
        <mxCell id="1" parent="0" />
        <mxCell id="w_B-rbQD5K_AAunpjG8P-1" value="관리자&lt;div&gt;&lt;br&gt;&lt;/div&gt;" style="shape=umlActor;verticalLabelPosition=bottom;verticalAlign=top;html=1;" parent="1" vertex="1">
          <mxGeometry x="-524" y="345" width="30" height="60" as="geometry" />
        </mxCell>
        <mxCell id="gWag6GQp4EmD9UIcOtir-4" value="사이드바" style="ellipse;whiteSpace=wrap;html=1;" parent="1" vertex="1">
          <mxGeometry x="-251" y="335" width="120" height="80" as="geometry" />
        </mxCell>
        <mxCell id="gWag6GQp4EmD9UIcOtir-5" value="계정관리" style="ellipse;whiteSpace=wrap;html=1;" parent="1" vertex="1">
          <mxGeometry x="179" y="-98.5" width="120" height="80" as="geometry" />
        </mxCell>
        <mxCell id="gWag6GQp4EmD9UIcOtir-6" value="결재양식" style="ellipse;whiteSpace=wrap;html=1;" parent="1" vertex="1">
          <mxGeometry x="179" y="-2.5" width="120" height="80" as="geometry" />
        </mxCell>
        <mxCell id="gWag6GQp4EmD9UIcOtir-7" value="권한부여" style="ellipse;whiteSpace=wrap;html=1;" parent="1" vertex="1">
          <mxGeometry x="179" y="92.5" width="120" height="80" as="geometry" />
        </mxCell>
        <mxCell id="gWag6GQp4EmD9UIcOtir-8" value="직원관리" style="ellipse;whiteSpace=wrap;html=1;" parent="1" vertex="1">
          <mxGeometry x="179" y="187.5" width="120" height="80" as="geometry" />
        </mxCell>
        <mxCell id="gWag6GQp4EmD9UIcOtir-9" value="근태관리" style="ellipse;whiteSpace=wrap;html=1;" parent="1" vertex="1">
          <mxGeometry x="179" y="278.5" width="120" height="80" as="geometry" />
        </mxCell>
        <mxCell id="gWag6GQp4EmD9UIcOtir-10" value="조직도관리" style="ellipse;whiteSpace=wrap;html=1;" parent="1" vertex="1">
          <mxGeometry x="179" y="473.5" width="120" height="80" as="geometry" />
        </mxCell>
        <mxCell id="gWag6GQp4EmD9UIcOtir-11" value="연차관리" style="ellipse;whiteSpace=wrap;html=1;" parent="1" vertex="1">
          <mxGeometry x="179" y="573.5" width="120" height="80" as="geometry" />
        </mxCell>
        <mxCell id="gWag6GQp4EmD9UIcOtir-12" value="" style="endArrow=classic;html=1;rounded=0;entryX=0;entryY=0.5;entryDx=0;entryDy=0;exitX=1;exitY=0.5;exitDx=0;exitDy=0;" parent="1" source="gWag6GQp4EmD9UIcOtir-4" target="gWag6GQp4EmD9UIcOtir-7" edge="1">
          <mxGeometry width="50" height="50" relative="1" as="geometry">
            <mxPoint x="126" y="214" as="sourcePoint" />
            <mxPoint x="226" y="306" as="targetPoint" />
          </mxGeometry>
        </mxCell>
        <mxCell id="gWag6GQp4EmD9UIcOtir-13" value="" style="endArrow=classic;html=1;rounded=0;entryX=0;entryY=0.5;entryDx=0;entryDy=0;exitX=1;exitY=0.5;exitDx=0;exitDy=0;" parent="1" source="gWag6GQp4EmD9UIcOtir-4" target="gWag6GQp4EmD9UIcOtir-8" edge="1">
          <mxGeometry width="50" height="50" relative="1" as="geometry">
            <mxPoint x="125" y="217" as="sourcePoint" />
            <mxPoint x="208" y="290" as="targetPoint" />
          </mxGeometry>
        </mxCell>
        <mxCell id="gWag6GQp4EmD9UIcOtir-14" value="" style="endArrow=classic;html=1;rounded=0;entryX=0;entryY=0.5;entryDx=0;entryDy=0;exitX=1;exitY=0.5;exitDx=0;exitDy=0;" parent="1" source="gWag6GQp4EmD9UIcOtir-4" target="gWag6GQp4EmD9UIcOtir-9" edge="1">
          <mxGeometry width="50" height="50" relative="1" as="geometry">
            <mxPoint x="125" y="217" as="sourcePoint" />
            <mxPoint x="208" y="385" as="targetPoint" />
          </mxGeometry>
        </mxCell>
        <mxCell id="gWag6GQp4EmD9UIcOtir-15" value="" style="endArrow=classic;html=1;rounded=0;entryX=0;entryY=0.5;entryDx=0;entryDy=0;exitX=1;exitY=0.5;exitDx=0;exitDy=0;" parent="1" source="gWag6GQp4EmD9UIcOtir-4" target="gWag6GQp4EmD9UIcOtir-10" edge="1">
          <mxGeometry width="50" height="50" relative="1" as="geometry">
            <mxPoint x="125" y="217" as="sourcePoint" />
            <mxPoint x="208" y="476" as="targetPoint" />
          </mxGeometry>
        </mxCell>
        <mxCell id="gWag6GQp4EmD9UIcOtir-16" value="" style="endArrow=classic;html=1;rounded=0;entryX=0;entryY=0.5;entryDx=0;entryDy=0;exitX=1;exitY=0.5;exitDx=0;exitDy=0;" parent="1" source="gWag6GQp4EmD9UIcOtir-4" target="gWag6GQp4EmD9UIcOtir-11" edge="1">
          <mxGeometry width="50" height="50" relative="1" as="geometry">
            <mxPoint x="125" y="217" as="sourcePoint" />
            <mxPoint x="208" y="572" as="targetPoint" />
          </mxGeometry>
        </mxCell>
        <mxCell id="gWag6GQp4EmD9UIcOtir-17" value="" style="endArrow=classic;html=1;rounded=0;entryX=0;entryY=0.5;entryDx=0;entryDy=0;exitX=1;exitY=0.5;exitDx=0;exitDy=0;" parent="1" source="gWag6GQp4EmD9UIcOtir-4" target="gWag6GQp4EmD9UIcOtir-6" edge="1">
          <mxGeometry width="50" height="50" relative="1" as="geometry">
            <mxPoint x="125" y="217" as="sourcePoint" />
            <mxPoint x="208" y="290" as="targetPoint" />
          </mxGeometry>
        </mxCell>
        <mxCell id="gWag6GQp4EmD9UIcOtir-18" value="" style="endArrow=classic;html=1;rounded=0;entryX=0;entryY=0.5;entryDx=0;entryDy=0;exitX=1;exitY=0.5;exitDx=0;exitDy=0;" parent="1" source="gWag6GQp4EmD9UIcOtir-4" target="gWag6GQp4EmD9UIcOtir-5" edge="1">
          <mxGeometry width="50" height="50" relative="1" as="geometry">
            <mxPoint x="128" y="214" as="sourcePoint" />
            <mxPoint x="208" y="195" as="targetPoint" />
          </mxGeometry>
        </mxCell>
        <mxCell id="gWag6GQp4EmD9UIcOtir-20" value="" style="endArrow=classic;html=1;rounded=0;" parent="1" edge="1">
          <mxGeometry width="50" height="50" relative="1" as="geometry">
            <mxPoint x="-442" y="379" as="sourcePoint" />
            <mxPoint x="-269" y="379" as="targetPoint" />
          </mxGeometry>
        </mxCell>
        <mxCell id="xqMUj24jc1Lgcmko-ngZ-1" value="급여&lt;span style=&quot;background-color: transparent; color: light-dark(rgb(0, 0, 0), rgb(255, 255, 255));&quot;&gt;관리&lt;/span&gt;" style="ellipse;whiteSpace=wrap;html=1;" vertex="1" parent="1">
          <mxGeometry x="179" y="376.5" width="120" height="80" as="geometry" />
        </mxCell>
        <mxCell id="xqMUj24jc1Lgcmko-ngZ-2" value="" style="endArrow=classic;html=1;rounded=0;exitX=1;exitY=0.5;exitDx=0;exitDy=0;entryX=0;entryY=0.5;entryDx=0;entryDy=0;" edge="1" parent="1" source="gWag6GQp4EmD9UIcOtir-4" target="xqMUj24jc1Lgcmko-ngZ-1">
          <mxGeometry width="50" height="50" relative="1" as="geometry">
            <mxPoint x="113" y="471" as="sourcePoint" />
            <mxPoint x="163" y="421" as="targetPoint" />
          </mxGeometry>
        </mxCell>
        <mxCell id="xqMUj24jc1Lgcmko-ngZ-3" value="게시판" style="ellipse;whiteSpace=wrap;html=1;" vertex="1" parent="1">
          <mxGeometry x="179" y="673.5" width="120" height="80" as="geometry" />
        </mxCell>
        <mxCell id="xqMUj24jc1Lgcmko-ngZ-4" value="일정관리" style="ellipse;whiteSpace=wrap;html=1;" vertex="1" parent="1">
          <mxGeometry x="179" y="768.5" width="120" height="80" as="geometry" />
        </mxCell>
        <mxCell id="xqMUj24jc1Lgcmko-ngZ-6" value="" style="endArrow=classic;html=1;rounded=0;entryX=0;entryY=0.5;entryDx=0;entryDy=0;exitX=1;exitY=0.5;exitDx=0;exitDy=0;" edge="1" parent="1" source="gWag6GQp4EmD9UIcOtir-4" target="xqMUj24jc1Lgcmko-ngZ-3">
          <mxGeometry width="50" height="50" relative="1" as="geometry">
            <mxPoint x="-121" y="385" as="sourcePoint" />
            <mxPoint x="212" y="721" as="targetPoint" />
          </mxGeometry>
        </mxCell>
        <mxCell id="xqMUj24jc1Lgcmko-ngZ-7" value="" style="endArrow=classic;html=1;rounded=0;entryX=0;entryY=0.5;entryDx=0;entryDy=0;exitX=1;exitY=0.5;exitDx=0;exitDy=0;" edge="1" parent="1" source="gWag6GQp4EmD9UIcOtir-4" target="xqMUj24jc1Lgcmko-ngZ-4">
          <mxGeometry width="50" height="50" relative="1" as="geometry">
            <mxPoint x="-121" y="385" as="sourcePoint" />
            <mxPoint x="212" y="821" as="targetPoint" />
          </mxGeometry>
        </mxCell>
      </root>
    </mxGraphModel>
  </diagram>
</mxfile>
